HIERARCHY
ROOT Hips
{
  OFFSET 0.0502438 101.687 1.15926
  CHANNELS 6 Xposition Yposition Zposition Zrotation Xrotation Yrotation
  JOINT Spine
  {
    OFFSET 0 10.1816 0.1315
    CHANNELS 3 Zrotation Xrotation Yrotation
    JOINT Spine1
    {
      OFFSET 0 10.0835 -1.0008
      CHANNELS 3 Zrotation Xrotation Yrotation
      JOINT Spine2
      {
        OFFSET 0 9.1 -1.3734
        CHANNELS 3 Zrotation Xrotation Yrotation
        JOINT Neck
        {
          OFFSET 0 16.6717 -2.5162
          CHANNELS 3 Zrotation Xrotation Yrotation
          JOINT Head
          {
            OFFSET 0 9.6179 1.685
            CHANNELS 3 Zrotation Xrotation Yrotation
            End Site
            {
              OFFSET 0 0 0
            }
          }
        }
        JOINT LeftShoulder
        {
          OFFSET 4.5704 10.946 -2.628
          CHANNELS 3 Zrotation Xrotation Yrotation
          JOINT LeftArm
          {
            OFFSET 10.5924 -0.5246 -2.2321
            CHANNELS 3 Zrotation Xrotation Yrotation
            JOINT LeftForeArm
            {
              OFFSET 27.8415 -0.0001 0
              CHANNELS 3 Zrotation Xrotation Yrotation
              JOINT LeftHand
              {
                OFFSET 28.3288 0 0
                CHANNELS 3 Zrotation Xrotation Yrotation
                End Site
                {
                  OFFSET 0 0 0
                }
              }
            }
          }
        }
        JOINT RightShoulder
        {
          OFFSET -4.57 10.9462 -2.628
          CHANNELS 3 Zrotation Xrotation Yrotation
          JOINT RightArm
          {
            OFFSET -10.5928 -0.5248 -2.2321
            CHANNELS 3 Zrotation Xrotation Yrotation
            JOINT RightForeArm
            {
              OFFSET -27.8415 0 0
              CHANNELS 3 Zrotation Xrotation Yrotation
              JOINT RightHand
              {
                OFFSET -28.3288 0 0.0001
                CHANNELS 3 Zrotation Xrotation Yrotation
                End Site
                {
                  OFFSET 0 0 0
                }
              }
            }
          }
        }
      }
    }
  }
  JOINT LeftUpLeg
  {
    OFFSET 8.2078 -6.7517 -1.5996
    CHANNELS 3 Zrotation Xrotation Yrotation
    JOINT LeftLeg
    {
      OFFSET 0 -44.3705 0.2846
      CHANNELS 3 Zrotation Xrotation Yrotation
      JOINT LeftFoot
      {
        OFFSET 0 -44.4279 -2.9822
        CHANNELS 3 Zrotation Xrotation Yrotation
        JOINT LeftToeBase
        {
          OFFSET 0 -8.7287 10.7106
          CHANNELS 3 Zrotation Xrotation Yrotation
          End Site
          {
            OFFSET 0 0 0
          }
        }
      }
    }
  }
  JOINT RightUpLeg
  {
    OFFSET -8.2078 -6.7517 -1.5996
    CHANNELS 3 Zrotation Xrotation Yrotation
    JOINT RightLeg
    {
      OFFSET 0 -44.3705 0.2862
      CHANNELS 3 Zrotation Xrotation Yrotation
      JOINT RightFoot
      {
        OFFSET 0 -44.4277 -2.9838
        CHANNELS 3 Zrotation Xrotation Yrotation
        JOINT RightToeBase
        {
          OFFSET 0 -8.7287 10.7106
          CHANNELS 3 Zrotation Xrotation Yrotation
          End Site
          {
            OFFSET 0 0 0
          }
        }
      }
    }
  }
}
MOTION
Frames:	6
Frame Time:	0.0333333
0.0502438 101.687 1.15926 -0.978413 -2.2551 -0.288287 0.94553 1.77761 -1.37584 0.674261 3.54969 -2.57512 0.67426 3.54968 -2.57512 -0.177378 -2.42959 1.35304 -0.079064 -0.120108 5.84413 -13.0245 2.29899 -7.92225 -59.1039 7.25916 -5.04149 6.7282 16.7548 -21.3919 1.78624 -5.64321 -8.35936 20.1339 1.53274 2.25401 62.4227 -3.89328 2.41737 -3.8499 15.8128 13.0152 -12.3647 -6.90552 10.8754 0.0937104 -20.3877 5.60552 2.02723 61.1491 17.5358 5.26907 3.66369 -0.371702 7.20291e-06 -3.98142 -8.76245e-06 5.78128 -12.1326 -1.18919 -0.370172 23.0554 -6.39589 -3.75732 -10.8965 -0.369839 1.49445e-06 3.38203 -8.56736e-07 
-0.108706 101.811 4.8583 -0.22777 -1.6798 -3.62851 0.847085 1.69051 -1.12528 0.51039 3.37673 -2.19549 0.51039 3.37673 -2.19549 -0.491107 -2.55793 1.0535 1.99795 0.476318 4.79786 -13.2721 2.21073 -7.39624 -62.5695 6.67583 -0.481408 6.30195 16.5093 -20.3726 0.0885018 -5.51818 -6.84923 19.4815 1.61995 2.73769 62.4566 -3.71296 2.74075 -4.34047 17.0881 13.5776 -12.4711 -6.95784 10.8623 -1.14843 -26.0047 3.24894 3.08091 54.7013 15.5052 5.86745 0.203688 -0.183257 1.61009e-07 -3.27269 7.69996e-06 5.00312 -10.6247 -1.02394 -0.452635 23.4667 -3.66044 -3.85462 -12.4427 -0.25094 1.05069e-06 3.37944 -3.21209e-06 
-0.305345 101.794 8.56688 0.50143 -1.26705 -6.89777 0.674985 1.65539 -0.960956 0.350281 3.30744 -1.97492 0.350281 3.30744 -1.97492 -0.262874 -2.56338 0.340193 3.90201 1.14067 3.37537 -13.0936 2.21555 -7.53366 -66.2728 5.7821 3.4724 5.38262 15.841 -18.1785 -1.51051 -5.36158 -5.26138 19.1208 1.64568 2.91987 62.3815 -3.60857 3.21002 -4.79388 18.5392 13.816 -12.8132 -7.10074 11.2404 -0.526023 -30.1948 3.358 3.52537 46.8948 9.02312 7.35917 -3.69533 0.0559812 0.00210842 -2.07873 0.00661858 4.02851 -9.2214 -1.01331 -0.51519 24.2186 -1.17368 -3.80891 -14.1025 -0.092295 -0.375699 3.20205 0.0225752 
-0.562434 101.689 12.2621 1.20344 -1.15754 -10.272 0.416376 1.68615 -0.87022 0.182146 3.37037 -1.85671 0.182146 3.37037 -1.85672 0.343522 -2.45052 -0.675 5.66854 1.77999 1.6649 -12.6318 2.29927 -8.19402 -69.7788 4.5822 6.43754 4.15125 14.7222 -15.0778 -2.92906 -5.20231 -3.97261 19.0669 1.61938 2.82855 62.1881 -3.52397 3.83793 -5.30378 20.268 13.9905 -13.3054 -7.32204 11.7749 1.3357 -32.9382 5.16883 3.01465 39.267 -0.432825 8.91754 -7.40476 0.692615 0.00712077 -0.893471 0.0312058 2.96174 -7.79676 -0.519884 -0.530997 25.26 0.514874 -3.85894 -15.493 0.134607 -0.356342 1.93676 0.0211412 
-0.886905 101.472 16.0002 1.90597 -1.43651 -14.0596 0.0503616 1.76271 -0.817396 -0.00189874 3.52541 -1.7675 -0.00189819 3.52541 -1.7675 1.14118 -2.16103 -1.85006 7.34326 2.35036 -0.144404 -12.1829 2.40645 -8.95761 -72.4715 3.3011 8.26277 2.87243 13.2056 -11.5351 -3.84885 -5.11995 -3.47 19.2059 1.58739 2.67169 61.9081 -3.3646 4.57121 -5.88374 22.232 14.1805 -13.8413 -7.60718 12.3104 3.63496 -34.1166 7.24196 1.78386 33.4108 -9.65822 9.14022 -10.0558 1.40171 0.0145084 -0.353011 0.0320963 1.93886 -6.51003 1.56053 -0.48133 27.0591 0.77546 -4.16547 -16.6258 0.438764 0.193051 0.234286 -0.0101192 
-1.26128 101.142 19.9051 2.61869 -2.0527 -18.4229 -0.367965 1.83122 -0.774549 -0.194485 3.66441 -1.68966 -0.194486 3.66441 -1.68965 1.8824 -1.63153 -3.03798 8.95005 2.85518 -1.86081 -12.0316 2.46817 -9.3326 -73.9133 2.55604 9.11596 1.78974 11.3133 -8.2083 -3.65597 -5.17169 -3.90505 19.3544 1.59637 2.67182 61.5552 -3.07439 5.08916 -6.59478 24.2646 14.6201 -14.2701 -7.91574 12.7337 5.64123 -33.2277 8.42068 0.374063 29.2373 -14.8263 6.43134 -10.6319 1.37648 0.0338288 -0.802598 -0.0471926 1.11466 -5.51291 5.90463 -0.369734 29.9101 -0.514563 -4.63534 -17.4604 0.786595 1.22719 -1.77567 -0.0415282 
